<svg width="187" height="252" viewBox="0 0 187 252" fill="none" xmlns="http://www.w3.org/2000/svg">
<path id="Vector" d="M106.614 157.81C103.262 159.843 100.214 161.837 97.0166 163.556C96.0801 164.061 94.22 164.317 93.6387 163.78C91.9207 162.195 90.4739 162.63 88.7301 163.473C82.2584 166.586 75.8061 169.744 69.2505 172.684C63.8962 175.087 58.9165 175.107 53.4847 171.719C47.4329 167.948 40.8062 165.027 35.8007 159.811C31.3441 155.157 25.964 151.514 19.9767 150.018C14.4351 148.638 10.0109 143.997 3.72008 144.892C2.55751 145.058 0.400289 143.703 0.0579756 142.629C-0.277879 141.575 0.916989 139.836 1.80184 138.666C2.47355 137.791 3.72008 137.337 4.15928 136.506C6.23253 136.077 8.30579 135.643 10.7537 135.138C15.9077 136.435 21.4881 136.889 27.133 134.122C27.2299 134.192 27.4431 134.473 27.7143 134.543C32.1321 135.688 33.3334 138.43 32.0804 142.636C31.9383 143.109 32.9394 144.298 33.6434 144.572C37.6285 146.119 41.6523 147.589 45.7213 148.9C50.94 150.574 55.7711 152.645 58.6323 157.733C59.8207 159.849 61.4806 159.12 62.8886 157.772C68.4625 152.447 74.0235 147.116 79.5716 141.766C82.8462 138.609 86.3016 135.604 89.2532 132.172C91.0617 130.063 92.5989 127.416 93.3029 124.757C94.2781 121.069 96.3643 118.519 99.3095 116.39C103.637 113.265 104.942 108.138 102.636 103.44C101.021 100.149 99.4516 96.8375 97.7788 93.3539C94.8336 93.0023 92.5666 94.383 90.5773 96.4604C89.1628 97.9369 87.8 99.1897 85.7526 97.1443C85.3005 96.6969 83.886 96.7097 83.1949 97.0612C79.4747 98.9404 75.9159 101.133 72.1634 102.948C69.2182 104.374 66.1503 105.684 62.9984 106.553C58.9746 107.665 54.7765 108.132 50.7268 109.168C48.744 109.679 46.9549 110.887 45.0431 111.699C44.1777 112.069 43.2411 112.453 42.3305 112.485C37.4283 112.657 32.3388 110.465 27.7208 114.121C27.3591 110.42 29.2838 108.426 32.5907 107.148C36.5628 105.607 40.4703 104.642 44.7331 105.23C45.295 105.307 46.0442 105.045 46.5157 104.693C55.3384 97.9944 66.3053 95.444 75.6834 89.915C82.2261 86.0543 88.278 81.369 94.4202 76.8755C96.965 75.0155 99.0576 72.5546 101.564 70.6306C103.01 69.5248 104.87 68.3103 106.556 68.2848C109.146 68.2464 110.657 67.5114 111.368 64.7948C108.339 62.4426 108.694 58.9845 108.281 55.4242C107.88 51.9918 108.261 49.1985 109.928 46.3733C112.169 42.5637 114.294 41.4707 121.993 40.4224C124.499 31.9403 126.992 23.1898 129.691 14.5031C130.854 10.7511 132.34 7.08851 133.89 3.47068C134.445 2.17951 135.627 1.1632 136.525 0.019043L137.713 0.894736C137.274 1.92384 136.841 2.95293 136.337 4.13544C137.3 4.03317 138.23 3.93729 139.16 3.83502C139.011 5.1965 138.889 6.34065 138.676 8.29658C138.417 8.45638 137.364 9.08918 136.312 9.72198C136.421 10.0224 136.531 10.3292 136.641 10.6296C138.85 9.84982 141.052 9.07 143.61 8.16874C143.397 8.97413 143.416 9.57497 143.126 9.88817C140.671 12.5153 138.055 15.0017 135.705 17.7055C134.594 18.9839 133.418 20.5691 133.173 22.1543C132.017 29.62 131.17 37.1241 130.221 44.6219C130.156 45.146 129.95 45.7916 130.169 46.1815C132.895 50.9818 131.332 56.2168 131.778 61.2409C131.849 62.0782 131.971 63.1201 131.564 63.7465C129.336 67.1534 130.667 70.2727 132.184 73.36C138.695 86.6232 138.023 100.967 137.978 115.042C137.959 120.5 135.375 126.023 133.534 131.367C132.617 134.032 133.05 135.918 134.2 138.423C139.212 149.347 143.526 160.597 148.667 171.457C151.767 178.002 155.119 184.266 156.334 191.585C157.399 198.028 159.66 204.273 161.288 210.633C162.818 216.603 164.129 222.631 165.751 228.575C165.996 229.463 167.352 230.576 168.289 230.672C172.125 231.055 175.994 231.081 179.856 231.253C181.142 231.311 182.556 231.093 183.68 231.554C184.972 232.084 186.515 233.03 186.968 234.181C187.265 234.941 186.037 236.584 185.12 237.441C183.893 238.591 182.272 239.313 180.89 240.317C176.517 243.475 171.841 246.332 167.966 250.001C166.08 251.784 164.355 251.413 162.973 250.94C161.268 250.352 159.182 248.831 158.665 247.265C156.986 242.145 155.985 236.814 154.622 231.586C154.248 230.16 153.608 228.786 152.936 227.463C147.24 216.181 141.963 204.791 141.853 191.796C141.847 190.907 141.472 189.821 140.884 189.175C136.777 184.707 132.669 180.233 128.361 175.957C126.036 173.649 124.04 171.188 119.842 171.156C114.313 171.118 113.099 165.071 109.682 161.978C108.526 160.929 107.79 159.427 106.634 157.816L106.614 157.81Z" fill="black"/>
</svg>
