<svg xmlns="http://www.w3.org/2000/svg" width="15" height="15" viewBox="0 0 15 15" fill="none">
  <path d="M0.162109 12.2726V14.3745C0.162109 14.4961 0.210398 14.6127 0.296352 14.6986C0.382306 14.7846 0.498885 14.8329 0.620443 14.8329H2.72694C2.84827 14.8328 2.96463 14.7847 3.05053 14.699L11.7112 6.03837L8.96119 3.28837L0.29686 11.949C0.210844 12.0348 0.162378 12.1512 0.162109 12.2726ZM10.096 2.15262L12.846 4.90262L14.1844 3.56429C14.3562 3.39239 14.4527 3.15927 14.4527 2.9162C14.4527 2.67314 14.3562 2.44002 14.1844 2.26812L12.7314 0.814286C12.5595 0.642437 12.3264 0.545898 12.0834 0.545898C11.8403 0.545898 11.6072 0.642437 11.4353 0.814286L10.096 2.15262Z" fill="#3D8361"/>
</svg>